<?xml version="1.0" encoding="UTF-8"?>
<svg version="1.1" viewBox="0 0 2048 532" width="100" height="30" xmlns="http://www.w3.org/2000/svg">
<path transform="translate(1799,2)" d="m0 0h146l20 4 12 4 16 8 11 8 10 9 7 7 10 14 8 16 5 15 3 16v10h-57l-4-16-7-14-9-10-9-6-12-5-10-2h-135l-16 4-11 6-9 8-7 10-5 13-2 12 1 13 4 13 6 10 8 9 11 7 10 4 4 1 18 1 131 1 16 3 19 7 16 9 13 11 11 11 10 15 8 16 5 17 2 12v25l-4 20-6 16-8 14-10 13-12 12-14 10-16 8-20 6-13 2h-145l-17-3-18-6-15-8-12-9-10-9-10-12-9-15-6-14-4-14-2-14v-6l1-1h56l1 1 3 15 7 14 8 9 10 7 12 5 11 2h134l16-4 11-6 10-9 7-11 5-13 1-6v-13l-3-13-8-15-9-9-11-7-12-4-6-1-143-1-20-4-15-6-15-8-14-11-9-9-10-13-10-19-5-16-3-19v-18l3-18 5-16 10-19 11-14 10-10 14-10 17-9 16-5z" fill="#00659C"/>
<path transform="translate(1,2)" d="m0 0h170l25 3 21 5 22 8 16 8 15 9 11 8 11 9 11 10 7 8 12 15 11 17 11 22 8 24 5 23 2 18v25l-3 24-6 24-8 21-11 21-8 12-10 13-11 12-10 10-14 11-18 12-15 8-20 8-21 6-16 3h-187v-311h57l1 1v253l123-1 17-4 17-6 16-8 17-12 13-12 9-10 10-15 8-16 7-19 4-20 1-13v-10l-2-19-5-19-6-16-8-15-10-14-9-10-9-9-13-10-18-10-14-6-19-5-11-2-175-1-1-1z" fill="#00669D"/>
<path transform="translate(423,88)" d="m0 0h57v69h255l1 1v56l-1 1h-255l1 126 293 1v57h-351z" fill="#00659C"/>
<path transform="translate(1330)" d="m0 0h57v342h252v57h-309z" fill="#00659C"/>
<path transform="translate(1051,1)" d="m0 0 4 4 13 24 9 16 30 54 16 29 15 27 32 58 40 72 16 29 15 27 16 29 15 27v2h-75l-5-8-16-29-15-27-16-29-40-72-32-58-15-27-32-58-10-18-2-5 13-23 12-22z" fill="#00659C"/>
<path transform="translate(423,2)" d="m0 0h351v57h-351z" fill="#00659C"/>
<path transform="translate(995,103)" d="m0 0 4 5 10 19 10 18 13 24 1 4-13 23-13 24-13 23-13 24-10 18-14 25-16 29-15 27-16 29-2 4h-76l2-5 10-19 9-16 30-54 16-29 15-27 32-58 40-72z" fill="#00659C"/>
<path transform="translate(1233,450)" d="m0 0h21l10 28 9 27 3-8 17-47h21v78h-15v-56l-11 31-9 25h-11l-9-25-10-28-1-3v56h-15z" fill="#00B9E4"/>
<path transform="translate(1333,450)" d="m0 0h21l16 44 3 10 1 1 9-27 10-28h21v78h-14l-1-55-11 31-9 24h-10l-5-12-15-41-1-4v57h-15z" fill="#00B9E4"/>
<path transform="translate(826,450)" d="m0 0h16l10 13 11 16 12 17 6 10v-56h15v78h-16l-10-13-11-16-10-14-8-13v56h-15z" fill="#00B9E4"/>
<path transform="translate(1518,450)" d="m0 0h16l24 34 14 21v-55h15v78h-16l-13-18-14-20-10-15-1-2-1 55h-14z" fill="#00B9E4"/>
<path transform="translate(1974,450)" d="m0 0h16l13 18 14 20 10 15 1 2 1-55h14v78h-16l-13-19-12-16-13-20v55h-15z" fill="#00B9E4"/>
<path transform="translate(1912,448)" d="m0 0h18l11 4 8 6 6 9 3 7 1 5v20l-4 12-6 9-10 7-10 3h-16l-12-4-9-7-6-10-3-9-1-7v-8l3-14 4-8 7-8 12-6zm4 12-8 3-7 8-3 8-1 6v8l3 12 6 8 7 4 3 1h10l10-5 6-8 2-7v-18l-3-9-7-8-8-3z" fill="#00B9E4"/>
<path transform="translate(1171,448)" d="m0 0h17l10 3 9 6 6 8 4 10 1 4v20l-4 12-7 10-10 6-9 3h-16l-12-4-9-7-6-10-3-9-1-6v-10l2-10 4-9 6-8 9-6zm4 12-8 3-7 8-3 7-1 7v8l3 12 4 6 6 5 6 2h10l10-5 4-5 4-10v-18l-3-9-7-8-8-3z" fill="#00B9E4"/>
<path transform="translate(681,450)" d="m0 0h37l10 3 6 4 4 6 2 8-1 10-5 8-6 5-6 3 14 19 8 11v1h-18l-13-19-8-10-9-1v30h-15zm15 12v24h16l8-3 4-4 1-8-3-6-7-3z" fill="#00B9E4"/>
<path transform="translate(405,450)" d="m0 0h37l10 3 8 7 3 7v13l-4 8-6 5-6 3h-2l13 18 10 13v1h-18l-13-18-8-11h-9l-1 29h-14zm14 12v24h16l9-3 4-5v-9l-4-5-6-2z" fill="#00B9E4"/>
<path transform="translate(1433,450)" d="m0 0h15l1 54 3 7 4 4 6 2h9l7-3 4-5 2-7 1-52h15v48l-2 13-4 8-8 7-7 3-5 1h-16l-12-4-7-6-4-7-2-9z" fill="#00B9E4"/>
<path transform="translate(1733,450)" d="m0 0h14l11 26 12 31 8 21h-16l-6-16v-3h-31l-3 9-4 10h-16l10-25 12-31zm7 19-5 12-5 15h20l-3-10-6-17z" fill="#00B9E4"/>
<path transform="translate(95,450)" d="m0 0h14l11 28 19 48v2h-15l-7-17v-2h-31l-3 10-4 9h-15l3-10 11-27 16-40zm6 19-9 25v2h20l-9-25z" fill="#00B9E4"/>
<path transform="translate(757,450)" d="m0 0h51v12h-36v20h31v13h-31v21h38v12h-53z" fill="#00B9E4"/>
<path transform="translate(3,450)" d="m0 0h51v12h-37v20h32v12l-1 1h-31v21h39v12h-53z" fill="#00B9E4"/>
<path transform="translate(985,450)" d="m0 0h51v12h-37v20h31l1 1v11l-1 1h-31v21h39v12h-53z" fill="#00B9E4"/>
<path transform="translate(613,450)" d="m0 0h51v12h-37v20h31l1 1v11l-1 1h-31v21h39v12h-53z" fill="#00B9E4"/>
<path transform="translate(481,450)" d="m0 0h51v12h-37v20h31l1 1v11l-1 1h-31v21h39v12h-53z" fill="#00B9E4"/>
<path transform="translate(169,448)" d="m0 0h18l13 3 1 1v11l-9-1-6-1h-13l-7 3-1 2v9l5 4 22 6 8 6 4 6 1 10-2 9-5 7-9 5-9 2h-17l-12-3-3-2v-11l7 1 9 2h13l8-3 3-3 1-7-2-4-6-3-17-4-8-4-6-7-1-3v-13l5-10 8-6z" fill="#00B9E4"/>
<path transform="translate(550,450)" d="m0 0h50v12h-35v20h30v13h-30v33h-15z" fill="#00B9E4"/>
<path transform="translate(1669,448)" d="m0 0h18l8 2v12l-8-1h-15l-10 4-6 7-3 7-1 5v12l3 10 5 6 8 4 4 1h14l10-1v11l-4 2-6 1h-18l-13-4-8-6-6-7-4-10-1-6v-13l3-12 4-8 7-8 8-5z" fill="#00B9E4"/>
<path transform="translate(1103,448)" d="m0 0h18l8 2v12l-8-1h-15l-10 4-6 7-3 7-1 6v10l3 10 4 6 6 4 7 2h14l10-1v11l-4 2-6 1h-18l-13-4-8-6-6-7-4-11-1-6v-11l3-13 6-11 8-7 8-4z" fill="#00B9E4"/>
<path transform="translate(943,448)" d="m0 0h19l8 2v12l-8-1h-15l-10 4-7 8-3 9v15l4 11 7 6 9 3h14l9-1v12l-9 2h-18l-13-4-6-4-5-5-5-8-3-11v-16l4-13 6-9 8-7 10-4z" fill="#00B9E4"/>
<path transform="translate(296,450)" d="m0 0h16l12 19 8 13 4-5 13-21 4-6h16l-4 8-11 17-12 19-1 1-1 33h-15l-1-33-13-20-14-22z" fill="#00B9E4"/>
<path transform="translate(1775,450)" d="m0 0h66v12h-26v66h-14v-66h-26z" fill="#00B9E4"/>
<path transform="translate(254,450)" d="m0 0h15v66h36v12h-51z" fill="#00B9E4"/>
<path transform="translate(1852,450)" d="m0 0h15v78h-15z" fill="#00B9E4"/>
<path transform="translate(221,450)" d="m0 0h15v78h-15z" fill="#00B9E4"/>
<path transform="translate(1606,450)" d="m0 0h14v78h-14z" fill="#00B9E4"/>
</svg>
