<?xml version="1.0" encoding="UTF-8"?>
<svg version="1.1" viewBox="0 0 1080 1080" width="30" height="30" xmlns="http://www.w3.org/2000/svg">
<path transform="translate(740,124)" d="m0 0 77 1h65l15-1 13 2 13 5 13 9 8 9 7 12 4 14v20l-1 5v120l1 5v21l-3 12-7 13-9 10-7 6-14 7-11 3-161 1-23 6-20 7-20 9-16 9-16 11-11 9-13 12-10 11-12 16-12 19-12 24-9 24-8 27-7 34-4 30-3 40-2 74-3 21-6 24-10 25-9 17-10 15-10 13-12 13-8 8-11 9-15 11-21 12-24 10-21 6-24 4-12 1h-22l-26-3-21-5-20-7-25-12-14-9-12-9-14-12-12-12-9-11-10-14-9-15-10-21-8-24-5-25-2-23v-11l2-24 5-25 8-24 12-25 14-21 9-11 11-12 8-8 14-11 14-10 22-12 20-8 20-6 21-4 9-1 53-2 33-3 39-6 31-7 25-7 24-8 26-11 27-14 24-16 16-13 15-14 9-11 8-10 12-19 10-21 7-21 3-13 1-161 4-15 6-11 9-10 8-7 15-7z" fill="#00B9E4"/>
<path transform="translate(324,434)" d="m0 0h25l25 2 29 5 26 7 20 7 25 11 19 10 19 12 3 3-21 7-32 8-33 6-15 2h-9l-25-6-22-3h-43l-22 3-25 6-23 8-25 12-19 12-12 9-11 9-15 14-9 10-13 17-12 19-11 21-8 21-6 20-5 26-2 24v16l2 24 4 22 7 25 10 24 10 19 12 18 10 13 11 12 16 16 17 13 15 10 16 9 17 8 19 7 23 6 25 4 14 1h23l22-2 26-5 20-6 24-10 21-11 15-10 13-10 14-12 12-12 9-11 10-13 10-16 12-23 8-20 7-24 4-23 2-28-1-25-4-26-7-27v-12l4-36 5-27 7-28 3-9 4 4 10 15 9 15 12 23 10 25 8 25 6 28 3 22 1 14v32l-3 29-6 29-6 20-8 22-14 29-12 20-12 17-13 16-9 10-12 13-8 7-10 9-17 13-21 14-16 9-16 8-16 7-19 7-30 8-32 5-13 1h-36l-28-3-26-5-25-7-26-10-23-11-22-13-17-12-16-13-12-11-19-19-9-11-13-17-12-19-10-18-9-19-9-24-7-25-5-25-3-29v-36l3-29 5-25 6-22 7-20 9-20 13-25 14-21 10-13 9-11 12-13 12-12 11-9 12-10 17-12 24-14 25-12 24-9 25-7 20-4 24-3z" fill="#00649C"/>
<path transform="translate(679,27)" d="m0 0h279l20 4 15 6 11 6 12 9 14 14 10 15 7 15 4 14 2 12v278l-4 20-8 19-8 12-12 14-14 11-16 9-17 6-10 2-10 1h-271l-19-3-15-5-17-9-4-3 2-4 8-9 8-7 14-11 18-11 16-8 7-1 14 4h208l15-4 14-7 11-9 8-9 8-14 4-10 2-9 1-10v-189l-2-15-5-14-7-12-9-10-9-8-15-8-14-4-8-1h-195l-17 3-12 5-12 7-11 10-9 13-5 11-4 16v203l3 12 2 6-8 15-8 12-8 10-9 10-11 11-10 8-4-4-7-14-5-17-2-16v-268l2-16 5-17 8-16 9-13 15-15 13-9 14-7 16-5z" fill="#00649C"/>
</svg>
